<svg xmlns="http://www.w3.org/2000/svg" width="23" height="15" viewBox="0 0 23 15">
    <g fill="none" fill-rule="evenodd">
        <g fill="#F1BC33" fill-rule="nonzero">
            <g>
                <g>
                    <path d="M9.497 10.888c-.371-.212-.99-.5-1.707-.5-.717 0-1.335.288-1.706.5-.198.116-.198.347 0 .482.37.212.99.501 1.706.501.718 0 1.336-.29 1.707-.501.198-.116.198-.366 0-.482zM13.503 11.37c.371.212.99.501 1.707.501.717 0 1.335-.29 1.706-.501.198-.116.198-.347 0-.482-.37-.212-.99-.5-1.706-.5-.718 0-1.336.288-1.707.5-.198.116-.198.366 0 .482z" transform="translate(-1264 -20) translate(1228 10) translate(36 10)"/>
                    <path d="M23 6.45c0-1.267-2.174-2.027-4.832-2.465l-.507-2.027c-.339-1.36-1.764-2.212-3.19-1.89L12.733.46c-.797.184-1.667.184-2.464 0L8.528.068c-1.425-.322-2.85.53-3.189 1.89l-.507 2.027C2.199 4.423 0 5.183 0 6.45c0 1.106 1.619 1.82 3.769 2.281l-.556 4.032c-.12.853.508 1.636 1.426 1.751 1.473.185 3.624.277 4.47.323h.072c.507 0 .99-.184 1.353-.553l.483-.46c.145-.139.338-.231.555-.231.218 0 .411.092.556.23l.46.461c.386.369.893.576 1.449.553 1.039-.046 2.971-.161 4.3-.323.435-.046.822-.276 1.087-.599.266-.322.387-.737.314-1.152l-.555-4.032C21.38 8.271 23 7.556 23 6.451zm-4.3 6.452c.024.138-.025.253-.097.368-.097.115-.217.185-.338.185-1.28.16-3.19.253-4.204.3-.218.022-.435-.07-.604-.231l-.46-.461c-.361-.346-.845-.553-1.352-.553-.507 0-.99.207-1.353.553l-.483.46c-.145.162-.363.231-.58.231-1.788-.069-3.382-.184-4.373-.322-.29-.047-.507-.3-.459-.576l.532-3.963c2.246.368 4.807.507 6.62.507 1.811 0 4.372-.139 6.62-.507l.53 4.009zm-7.176-4.516c-6.837 0-10.364-1.36-10.364-1.913 0-.322 1.16-.921 3.43-1.359L4.3 6.289l1.088.23L6.45 2.188c.193-.783 1.014-1.29 1.86-1.106l1.74.392c.966.207 2.005.207 2.971 0l1.74-.392c.821-.184 1.667.3 1.86 1.106l1.063 4.331 1.087-.23-.314-1.175c2.271.438 3.43 1.014 3.43 1.36 0 .552-3.527 1.912-10.364 1.912z" transform="translate(-1264 -20) translate(1228 10) translate(36 10)"/>
                </g>
            </g>
        </g>
    </g>
</svg>
