<svg xmlns="http://www.w3.org/2000/svg" width="20" height="20" viewBox="0 0 20 20">
    <g fill="none" fill-rule="evenodd" opacity=".349">
        <g>
            <g>
                <g>
                    <path d="M0 0L20 0 20 20 0 20z" transform="translate(-1234 -18) translate(1228 10) translate(6 8)"/>
                    <path fill="#000" fill-rule="nonzero" d="M10 5.417c3.158 0 5.975 1.775 7.35 4.583-1.375 2.808-4.183 4.583-7.35 4.583S4.025 12.808 2.65 10C4.025 7.192 6.842 5.417 10 5.417m0-1.667C5.833 3.75 2.275 6.342.833 10c1.442 3.658 5 6.25 9.167 6.25s7.725-2.592 9.167-6.25c-1.442-3.658-5-6.25-9.167-6.25zm0 4.167c1.15 0 2.083.933 2.083 2.083 0 1.15-.933 2.083-2.083 2.083-1.15 0-2.083-.933-2.083-2.083 0-1.15.933-2.083 2.083-2.083m0-1.667c-2.067 0-3.75 1.683-3.75 3.75s1.683 3.75 3.75 3.75 3.75-1.683 3.75-3.75S12.067 6.25 10 6.25z" transform="translate(-1234 -18) translate(1228 10) translate(6 8)"/>
                </g>
            </g>
        </g>
    </g>
</svg>
