<svg xmlns="http://www.w3.org/2000/svg" xmlns:xlink="http://www.w3.org/1999/xlink" width="16" height="13" viewBox="0 0 16 13">
    <defs>
        <path id="vx8bb2z67a" d="M0.11 0.02L3.464 0.02 3.464 11.053 0.11 11.053z"/>
    </defs>
    <g fill="none" fill-rule="evenodd">
        <g>
            <g>
                <g>
                    <g transform="translate(-224 -33) translate(218 29) translate(6 4) translate(11.526 .138)">
                        <mask id="997ngika3b" fill="#fff">
                            <use xlink:href="#vx8bb2z67a"/>
                        </mask>
                        <path fill="#FFF" d="M1.275.221C1.007-.047.58-.047.312.221c-.269.268-.269.695 0 .963 2.4 2.4 2.4 6.3 0 8.7-.269.269-.269.695 0 .963.126.127.3.206.473.206.174 0 .348-.064.474-.206C4.196 7.911 4.196 3.142 1.275.221" mask="url(#997ngika3b)"/>
                    </g>
                    <path fill="#FFF" d="M10.543 2.601c-.268-.268-.694-.268-.963 0-.268.269-.268.695 0 .963 1.153 1.153 1.169 3.048 0 4.2-.268.269-.268.695 0 .964.127.126.3.205.474.205s.347-.063.474-.205c1.72-1.69 1.705-4.437.015-6.127M3.154 1.322c.268-.268.268-.694 0-.963-.268-.268-.695-.268-.963 0C-.73 3.28-.73 8.05 2.19 10.97c.126.127.3.206.473.206.174 0 .348-.063.474-.205.269-.269.269-.695 0-.963C.754 7.622.754 3.722 3.154 1.322" transform="translate(-224 -33) translate(218 29) translate(6 4)"/>
                    <path fill="#FFF" d="M5.396 3.565c.269-.269.269-.695 0-.964-.268-.268-.695-.268-.963 0-1.69 1.69-1.69 4.437 0 6.127.126.126.3.205.474.205.173 0 .347-.063.473-.205.269-.269.269-.695 0-.963-1.137-1.153-1.137-3.048.016-4.2M7.496 4.512c.637 0 1.153.516 1.153 1.153 0 .636-.516 1.152-1.153 1.152s-1.153-.516-1.153-1.152c0-.637.516-1.153 1.153-1.153" transform="translate(-224 -33) translate(218 29) translate(6 4)"/>
                </g>
            </g>
        </g>
    </g>
</svg>
