<svg xmlns="http://www.w3.org/2000/svg" width="60" height="60" viewBox="0 0 60 60">
    <g fill="none" fill-rule="evenodd">
        <g>
            <g transform="translate(-180 -478) translate(180 478)">
                <circle cx="30" cy="30" r="30" fill="#46B489"/>
                <path fill="#FFF" fill-rule="nonzero" d="M20.063 27h-5.625c-.526 0-.938.367-.938.833v13.334c0 .466.412.833.938.833h5.625c.525 0 .937-.367.937-.833V27.833c0-.466-.412-.833-.937-.833zM45 27.525c0-1.372-.955-2.761-2.778-2.761h-8.264c1.18-2.086 1.527-5.02.707-7.165-.603-1.579-1.755-2.5-3.246-2.594l-.024-.002c-.97-.058-1.81.66-1.891 1.616-.213 2.129-1.157 5.894-2.511 7.23-1.14 1.126-2.115 1.597-3.733 2.378-.234.113-.49.237-.76.37.005.057.008.115.008.174v13.34l.577.196c2.67.909 4.976 1.693 8.502 1.693h6.682c1.823 0 2.777-1.39 2.777-2.762 0-.407-.084-.816-.25-1.19.608-.107 1.14-.396 1.533-.837.447-.502.694-1.168.694-1.877 0-.406-.084-.815-.25-1.187 1.465-.25 2.227-1.49 2.227-2.717 0-.711-.257-1.428-.757-1.952.5-.525.757-1.241.757-1.953z"/>
            </g>
        </g>
    </g>
</svg>
