<svg xmlns="http://www.w3.org/2000/svg" width="32" height="34" viewBox="0 0 32 34">
    <g fill="none" fill-rule="evenodd">
        <g>
            <g>
                <path fill="#FFF" d="M19.322 0L2.623 5.498 2.618 5.503 2.618 5.51 6.723 13.298 6.73 13.303 6.738 13.3 19.332.015 19.332.004zM20.902 2.21L14.853 8.593 14.864 8.599 31.245 16.658zM21.789 14.993L19.298 33.249 29.623 18.846z" transform="translate(-19 -11) translate(19 11)"/>
                <path fill="#07698D" d="M21.789 14.993L21.78 14.992 19.285 33.282 29.637 18.842 21.781 14.979 21.78 14.992 21.789 14.993 21.785 15 29.609 18.849 19.313 33.213 21.797 14.993 21.789 14.993 21.785 15z" transform="translate(-19 -11) translate(19 11)"/>
                <path fill="#FFF" d="M17.922 23.629L0 26.875 16.74 32.398 17.935 23.627zM8.643 22.584L.062 6.299.055 24.153 8.649 22.595z" transform="translate(-19 -11) translate(19 11)"/>
            </g>
        </g>
    </g>
</svg>
